# ProBuilder 4.2.3
# https://unity3d.com/unity/features/worldbuilding/probuilder
# 4/18/2020 9:51:52 PM

mtllib ./FishModel.mtl
o FishModel

g FishModel
v 0.001440644 -0.04040468 0.1842791 0.498 0.859 1
v 0.0009604692 -0.1004095 0.1243444 0.498 0.859 1
v -0.0217452 -0.06433719 0.1245263 0.498 0.859 1
v 0.02366614 -0.06433719 0.1241625 0.498 0.859 1
v 0.02174509 -0.0222069 -0.1156584 0.498 0.859 1
v -0.0009605885 -0.04884374 -0.1154766 0.498 0.859 1
v 0 -0.1004095 0.00443387 0.498 0.859 1
v -0.02366626 -0.0222069 -0.1152947 0.498 0.859 1
v -0.001511812 -0.09581453 -0.1842791 0.498 0.859 1
v -0.001511812 0.05419099 -0.184279 0.498 0.859 1
v -0.001262546 -0.02306104 -0.1531735 0.498 0.859 1
v -0.02174509 0.01992321 0.1245263 0.498 0.859 1
v -0.0108726 0.03386796 0.06448013 0.498 0.859 1
v 0.005398989 0.04342115 0.03295562 0.498 0.859 1
v 0.01183307 0.03386807 0.06429824 0.498 0.859 1
v -0.0003429651 0.05517995 0.04377189 0.498 0.859 1
v 0.0009605885 0.0478127 0.1243444 0.498 0.859 1
v 0.0007439852 0.1004095 0.004421085 0.498 0.859 1
v 0.02366626 0.01992321 0.1241626 0.498 0.859 1
v 0.0004673004 0.0448643 -0.0128921 0.498 0.859 1
v -0.0009605885 0.002721786 -0.1154766 0.498 0.859 1
v 0.02366614 -0.02220702 0.1241626 0.498 0.859 1
v -0.005976915 0.04363346 0.0334188 0.498 0.859 1
v -0.02174509 -0.0222069 0.1245263 0.498 0.859 1
v 0.001440644 -0.008484364 0.1842791 0.498 0.859 1
v -0.01015222 0.005719423 0.1544027 0.498 0.859 1
v 0.01255345 0.005719423 0.1542208 0.498 0.859 1

vt 0.613739 0.04147197
vt 0.4141029 -0.2261786
vt 0.3664418 -0.06527857
vt -0.6138881 0.04136068
vt -0.3665909 -0.06538984
vt -0.4142519 -0.2262898
vt 0.3961525 0.08188497
vt 0.42692 -0.05243751
vt -0.01634114 -0.312469
vt -0.4379877 -0.1601259
vt -0.3930246 -0.2903852
vt -0.6271511 -0.520081
vt -0.447309 -0.03669032
vt 0.4946061 -0.2151157
vt 0.01742305 -0.3678856
vt -0.6229243 0.2841279
vt -0.3445059 -0.02298964
vt -0.5177656 -0.0264234
vt 0.4378469 -0.1602695
vt 0.6270102 -0.5202247
vt 0.3928837 -0.2905287
vt 0.4952135 0.0504343
vt -0.4458752 -0.1322993
vt 0.2563114 0.1109175
vt -0.1305567 0.1438985
vt -0.2549487 0.1013607
vt -0.1721034 0.1962572
vt 0.4473283 -0.03679313
vt -0.01740358 -0.3679884
vt -0.4945867 -0.2152185
vt 0.4895594 0.004298085
vt 0.2535075 0.0750932
vt 0.4895594 0.1458883
vt -0.4895595 -0.1668152
vt -0.0174557 -0.3346258
vt -0.4895594 -0.3346258
vt -0.1188871 0.1552149
vt -0.1660478 0.2025799
vt -0.01592741 0.3847679
vt -0.1309902 0.153164
vt 0.4474869 -0.1271948
vt -0.2559596 0.1123535
vt -0.2561351 0.1085871
vt -0.4948741 0.04746337
vt -0.1716238 0.2020031
vt -0.3960565 0.08204883
vt 0.01643739 -0.312305
vt -0.4268238 -0.0522736
vt -0.4951909 0.05055125
vt -0.2562888 0.1110345
vt 0.4458978 -0.1321823
vt 0.05036749 0.1578744
vt -0.04839055 0.1242446
vt -0.3956996 -0.2231306
vt -0.4265912 -0.09402006
vt 0.4633529 -0.08725038
vt -0.01710274 -0.3953011
vt 0.04921624 0.176916
vt -0.1313749 0.1709639
vt -0.2573442 0.1333529
vt -0.4976179 -0.2532958
vt -0.4976179 0.07843812
vt -0.4976179 -0.08742885
vt 0.1316465 0.1440296
vt 0.1723336 0.1946695
vt 0.2539978 0.1012007
vt 0.1334693 0.1473944
vt -0.5996603 0.416077
vt -0.3758008 0.162451
vt -0.4261376 0.03960951
vt 0.4895594 -0.1666661
vt 0.4895594 -0.3344767
vt 0.0174557 -0.3344767
vt -0.05052389 0.1766845
vt 0.1335592 0.1718382
vt 0.01728882 -0.3953101
vt 0.2574234 0.1333386
vt 0.4976698 -0.2532958
vt 0.4976698 0.07843812
vt 0.4976698 -0.08742885
vt -0.4633185 -0.08735938
vt -0.05017756 0.1767511
vt -0.4884972 0.1257809
vt 0.1335509 0.1713383
vt -0.05053214 0.1761896
vt 0.01684237 0.3951181
vt 0.17185 0.1833889
vt 0.5995025 0.4162165
vt 0.4259799 0.03974876
vt 0.3756432 0.1625903
vt 0.3420616 -0.1531291
vt 0.5153211 -0.156574
vt 0.6199542 -0.4499897
vt 0.04663201 0.1214395
vt 0.425038 -0.09646904
vt 0.3932784 -0.2253689
vt -0.4495201 -0.1206939
vt -0.6198087 -0.4500418
vt 0.1663366 0.2003486
vt 0.6230678 0.2840791
vt -0.1312791 0.1710427
vt 0.050265 0.1767251
vt 0.3887981 -0.003493541
vt 0.5762421 -0.2674482
vt 0.4553682 -0.2008522
vt 0.3344943 -0.1342563
vt 0.4895594 -0.08742885
vt -0.4261876 -0.08742885
vt -0.4261876 -0.2532958
vt -0.6785241 -0.1590733
vt -0.4261876 0.07843815
vt -0.5523558 0.02251773
vt -0.6785241 -0.03340269
vt -0.4895595 -0.08742885
vt -0.3889679 -0.003372888
vt -0.3346642 -0.1341356
vt -0.4555381 -0.2007316
vt -0.5764117 -0.2673278
vt 0.6784251 -0.1590733
vt 0.4260885 -0.2532958
vt 0.4260885 -0.08742885
vt 0.4260885 0.07843812
vt 0.5522568 0.0225177
vt 0.6784251 -0.03340272

vn -0.7429398 -0.4700454 0.4765477
vn 0.750479 -0.470046 0.4645836
vn 0.7308563 -0.6248682 -0.2745703
vn -0.6925706 -0.5931614 0.4104943
vn -0.9995164 0.01332295 -0.0280978
vn -0.9819044 -0.1877053 -0.02510949
vn -0.9278467 -0.3685325 -0.05730915
vn -0.8449462 -0.2021151 -0.4951923
vn -0.841513 0.007388718 -0.4978858
vn 0.6990579 -0.5931621 0.3993455
vn -0.9761557 0.2149957 -0.02994911
vn -0.9052624 0.4196219 -0.06646436
vn 0.8833174 0.467155 -0.03894284
vn 0.998938 0.01332237 -0.04410668
vn 0.9268103 -0.3685309 -0.07216537
vn 0.9813761 -0.1877058 -0.04083621
vn -0.7754601 0.631366 0.006212889
vn -0.8233245 0.5593983 0.03243819
vn 0.846267 -0.5327159 -0.006778501
vn 0.9985158 0.05283313 -0.01322156
vn 0.9396546 0.2114309 0.2689724
vn 0.9889624 0.122509 0.08333634
vn 0.9121065 0.4022342 -0.07730402
vn 0.9189119 0.3881422 -0.07033246
vn 0.8950917 0.4396096 -0.07452674
vn 0.8349705 0.5350718 -0.01470453
vn -0.7351609 -0.6248685 -0.2628264
vn 0.9755507 0.2149953 -0.04558391
vn 0.9040805 0.4196236 -0.08095908
vn 0.9053012 0.4163262 -0.08427559
vn -0.7932356 0.5643922 -0.1827186
vn -0.7154098 0.6497387 -0.2569599
vn 0.9769341 -0.02838432 -0.2116462
vn 0.9869046 -0.02222896 -0.1597662
vn 0.9911155 0.00295477 -0.1329716
vn 0.9797443 0.002929252 -0.2002313
vn 0.9803877 0.001464672 -0.1970733
vn 0.9810185 -5.880854E-07 -0.193914
vn 0 0 0
vn -0.9181069 0.3917397 -0.02154537
vn -0.897674 0.4406505 -0.002947598
vn -0.8710614 0.4790457 -0.1084773
vn -0.6566303 0.6013956 0.4551482
vn -0.846267 -0.5327159 0.006778501
vn -0.990321 -0.0132917 -0.1381576
vn -0.987322 -0.009079901 -0.1584701
vn -0.98572 -0.004539837 -0.1683313
vn -0.9839993 7.732573E-07 -0.1781723
vn -0.981501 -0.01955737 -0.1904557
vn 0.7748492 0.6305339 0.04511768
vn -0.9645551 0.142346 0.05514786
vn -0.9895124 0.04745379 -0.1364306
vn -0.8711889 0.4874306 0.05866348
vn 0.6638375 0.6013964 0.4445697
vn 0.8334299 0.007388666 -0.5113024
vn 0.8299541 0.2168901 -0.5139406
vn 0.7095399 0.6482818 -0.2761954
vn -0.9385397 0.3428289 -0.04014313
vn -0.8380799 0.2168925 -0.5005794
vn -0.9395979 0.2372382 0.2467263
vn 0.8369058 -0.2021127 -0.5086641
vn -0.6629088 0.5430553 0.5154056
vn -0.9999679 1.411891E-06 0.008010622
vn 0.9379514 -1.572285E-06 0.3467668
vn 0.9999679 -1.40906E-06 -0.008010125
vn 0.67108 0.5430548 0.5047209
vn -0.9322755 6.814226E-07 0.3617491

usemtl fish_animation
f 3/3/1 2/2/1 1/1/1
f 2/6/2 4/5/2 1/4/2
f 7/9/3 6/8/3 5/7/3
f 9/12/4 6/11/4 8/10/4
f 6/21/10 9/20/10 5/19/10
f 16/27/13 15/26/13 14/25/13
f 2/36/19 7/35/19 4/34/19
f 6/48/27 7/47/27 8/46/27
f 15/60/37 7/57/37 14/59/36
f 19/62/38 22/63/39 4/61/38
f 8/70/43 21/69/43 10/68/43
f 7/73/44 2/72/44 3/71/44
f 7/76/45 23/75/45 20/74/45
f 7/76/47 13/77/47 23/75/46
f 3/78/48 24/80/39 12/79/48
f 7/76/49 20/82/49 5/81/49
f 21/90/54 5/89/54 10/88/54
f 5/96/57 21/95/57 20/94/57
f 1/110/64 4/109/64 22/108/64
f 27/112/64 25/113/64 1/110/64
f 24/121/67 3/120/67 1/119/67
f 1/119/67 25/124/67 26/123/67
f 8/13/5 7/15/7 3/14/6
f 3/14/6 24/107/63 8/13/5
f 9/98/59 8/17/9 10/16/8
f 10/16/8 11/18/9 9/98/59
f 12/22/11 13/24/12 8/23/5
f 8/23/5 24/107/63 12/22/11
f 4/30/16 7/29/15 5/28/14
f 5/28/14 22/114/65 4/30/16
f 16/87/53 13/32/18 12/31/17
f 12/31/17 17/33/18 16/87/53
f 18/39/22 16/38/21 14/37/20
f 14/37/20 20/102/35 18/39/22
f 14/40/23 15/42/24 5/41/23
f 5/41/23 20/52/30 14/40/23
f 17/83/50 19/44/26 15/43/25
f 15/43/25 16/45/26 17/83/50
f 5/51/14 15/50/29 19/49/28
f 19/49/28 22/114/65 5/51/14
f 20/53/31 21/55/32 8/54/31
f 8/54/31 23/67/42 20/53/31
f 14/101/20 7/57/34 8/56/33
f 8/56/33 20/58/35 14/101/20
f 4/61/38 7/57/37 15/60/37
f 15/60/37 19/62/38 4/61/38
f 13/66/40 16/65/41 23/64/40
f 23/64/40 8/97/58 13/66/40
f 13/77/47 7/76/47 3/78/48
f 3/78/48 12/79/48 13/77/47
f 18/86/51 20/85/52 23/84/51
f 23/84/51 16/99/60 18/86/51
f 5/91/55 9/93/56 11/92/55
f 11/92/55 10/100/61 5/91/55
f 26/105/62 25/104/62 17/103/62
f 17/103/62 12/106/62 26/105/62
f 1/110/64 22/108/64 19/111/64
f 19/111/64 27/112/64 1/110/64
f 27/117/66 19/116/66 17/115/66
f 17/115/66 25/118/66 27/117/66
f 12/122/67 24/121/67 1/119/67
f 1/119/67 26/123/67 12/122/67

